<?xml version="1.0" encoding="UTF-8" standalone="no"?>
<svg
   viewBox="0 0 384 512"
   version="1.1"
   id="svg3773"
   sodipodi:docname="play.svg"
   inkscape:version="1.2 (dc2aedaf03, 2022-05-15)"
   xmlns:inkscape="http://www.inkscape.org/namespaces/inkscape"
   xmlns:sodipodi="http://sodipodi.sourceforge.net/DTD/sodipodi-0.dtd"
   xmlns="http://www.w3.org/2000/svg"
   xmlns:svg="http://www.w3.org/2000/svg">
  <defs
     id="defs3777" />
  <sodipodi:namedview
     id="namedview3775"
     pagecolor="#ffffff"
     bordercolor="#000000"
     borderopacity="0.25"
     inkscape:showpageshadow="2"
     inkscape:pageopacity="0.0"
     inkscape:pagecheckerboard="0"
     inkscape:deskcolor="#d1d1d1"
     showgrid="false"
     inkscape:zoom="1.3865922"
     inkscape:cx="191.83722"
     inkscape:cy="198.32796"
     inkscape:window-width="1366"
     inkscape:window-height="705"
     inkscape:window-x="-8"
     inkscape:window-y="-8"
     inkscape:window-maximized="1"
     inkscape:current-layer="svg3773" />
  <!--! Font Awesome Pro 6.1.1 by @fontawesome - https://fontawesome.com License - https://fontawesome.com/license (Commercial License) Copyright 2022 Fonticons, Inc. -->
  <path
     d="M361 215C375.3 223.8 384 239.3 384 256C384 272.7 375.3 288.2 361 296.1L73.03 472.1C58.21 482 39.66 482.4 24.52 473.9C9.377 465.4 0 449.4 0 432V80C0 62.64 9.377 46.63 24.52 38.13C39.66 29.64 58.21 29.99 73.03 39.04L361 215z"
     id="path3771" />
  <path
     style="fill:#00a3cc;fill-opacity:1;stroke:#00a3cc;stroke-width:0.1;stroke-dasharray:none"
     d="M 35.803926,477.81421 C 17.316192,472.62186 3.4741139,456.58778 1.0405681,437.54582 c -1.31294741,-10.27353 -1.31294741,-352.81811 0,-363.091637 3.838418,-30.034782 35.3059089,-49.472154 63.0201859,-38.927374 2.978434,1.13324 71.764536,42.597729 152.857996,92.143311 114.24865,69.80235 148.63955,91.27543 152.75902,95.38003 13.73732,13.68775 17.45755,35.33771 9.10586,52.99171 -5.91092,12.49467 -1.06549,9.27687 -162.05056,107.61601 -81.8996,50.02909 -151.20319,91.84997 -154.00797,92.9353 -6.83971,2.64666 -19.758782,3.23262 -26.921174,1.22104 z"
     id="path4142" />
  <path
     style="fill:#00a3cc;fill-opacity:1;stroke:#00a3cc;stroke-width:0.101992;stroke-dasharray:none"
     d="M 34.154014,476.50803 C 18.510865,471.09876 6.8014277,458.29404 2.5413028,441.93831 1.2205359,436.86754 1.0199203,412.34897 1.0199203,256 1.0199203,57.603399 0.60722649,70.545544 7.3361908,57.920714 10.633278,51.734745 20.128931,42.04339 25.73169,39.146091 36.385198,33.636947 50.472516,31.938203 60.294453,34.97828 c 6.260731,1.937815 119.875577,70.38671 244.661727,147.39997 62.58948,38.62784 67.17331,41.92039 72.25766,51.90249 9.61366,18.87451 5.6453,42.61549 -8.9907,53.78743 -13.17672,10.05805 -30.80962,21.12596 -137.72115,86.44552 -125.14276,76.45827 -166.288339,100.99751 -171.823861,102.4758 -7.008823,1.87175 -18.363509,1.64882 -24.524115,-0.48146 z"
     id="path4144" />
  <path
     style="fill:#00a3cc;fill-opacity:1;stroke:#00a3cc;stroke-width:0.101992;stroke-dasharray:none"
     d="M 34.154014,476.50803 C 19.979432,471.60658 9.1605211,461.08847 3.7638291,446.96282 L 1.5298805,441.11554 1.2273678,259.56972 C 1.0063756,126.94647 1.2377006,76.3858 2.0857875,71.945096 4.3850482,59.905838 13.948732,46.104688 24.12474,40.14115 c 10.954725,-6.419896 26.873743,-8.62714 36.73823,-5.093922 5.979624,2.141756 84.31795,49.201543 199.21671,119.674442 92.93206,56.99967 105.81651,65.26753 111.38212,71.47315 7.98054,8.89824 11.51379,19.7827 10.75302,33.12553 -0.4413,7.73961 -1.04663,10.11698 -4.20141,16.50022 -2.45135,4.95999 -5.15417,8.66097 -8.06997,11.05025 -11.66195,9.55609 -72.15286,47.11875 -232.42369,144.3267 -64.709992,39.24809 -74.472356,44.90482 -79.494771,46.06265 -6.883628,1.5869 -18.131579,1.23249 -23.870965,-0.75214 z"
     id="path4146" />
  <path
     style="fill:#00a3cc;fill-opacity:1;stroke:#00a3cc;stroke-width:0.101992;stroke-dasharray:none"
     d="M 34.24362,476.65874 C 21.103285,472.62558 8.9848035,460.81005 3.7180604,446.89629 L 1.5298805,441.11554 1.2273678,259.56972 C 1.0063756,126.94647 1.2377006,76.3858 2.0857875,71.945096 5.3352732,54.930324 19.996998,39.111324 36.615186,34.690234 c 6.26218,-1.665986 19.143629,-1.462668 24.312694,0.383745 6.975155,2.491557 113.3898,66.626451 237.90877,143.384911 67.12349,41.37758 72.55352,45.20602 77.75836,54.82333 10.04673,18.564 6.71542,43.09436 -7.3637,54.22327 -9.82932,7.76963 -30.81807,21.09857 -98.95243,62.83991 C 131.07735,435.62483 65.100155,475.22814 59.344579,476.96032 53.357348,478.7622 40.597375,478.6089 34.24362,476.65874 Z"
     id="path4148" />
  <path
     style="fill:#00a3cc;fill-opacity:1;stroke:#00a3cc;stroke-width:0.101992;stroke-dasharray:none"
     d="M 32.930097,476.30318 C 17.851642,470.9421 4.9686669,456.04922 2.0369447,440.59031 0.53759184,432.68425 0.65247567,78.341415 2.1567105,71.189644 6.1221805,52.336115 23.097044,36.327178 41.816733,33.78641 c 7.354099,-0.99815 15.974275,-0.136288 21.418327,2.141447 7.523962,3.147948 186.06883,111.410053 266.55546,161.628043 37.90825,23.65207 42.76649,27.4801 47.91457,37.7541 8.87349,17.70876 4.93677,41.54215 -8.6504,52.37057 -9.64433,7.68613 -30.32018,20.79412 -103.36545,65.53114 -138.29541,84.69988 -200.471312,121.97896 -206.440978,123.77672 -6.481768,1.95198 -19.882068,1.60308 -26.318165,-0.68525 z"
     id="path4150" />
  <path
     style="fill:#00a3cc;fill-opacity:1;stroke:#00a3cc;stroke-width:0.101992;stroke-dasharray:none"
     d="M 33.118908,476.42176 C 18.467884,471.14406 6.4784657,458.07402 2.588562,443.13967 1.2056343,437.83025 1.0199203,415.78635 1.0199203,256.94484 1.0199203,143.99877 1.3914931,74.813145 2.0157679,71.521358 5.5372462,52.952674 23.06594,36.333393 41.816733,33.78532 52.786168,32.294667 60.270693,33.89369 70.884462,39.995463 97.288237,55.174786 257.82994,152.73921 320.11451,191.45758 c 48.73568,30.29588 52.67639,33.38803 58.55192,45.94372 2.60133,5.55892 3.18252,8.23845 3.56682,16.44457 0.5062,10.80879 -1.41127,18.74126 -6.4656,26.74783 -4.96305,7.86198 -20.99006,18.27381 -140.67602,91.38904 -134.5568,82.19972 -169.476042,103.04867 -175.843368,104.98934 -6.480231,1.97509 -19.903584,1.69236 -26.129354,-0.55032 z"
     id="path4152" />
  <path
     style="fill:#00a3cc;fill-opacity:1;stroke:#00a3cc;stroke-width:0.101992;stroke-dasharray:none"
     d="M 33.118908,476.47792 C 18.075004,470.89395 6.5335919,458.28566 2.5833654,443.11972 1.2072716,437.83653 1.0199203,415.52677 1.0199203,256.94484 1.0199203,139.46519 1.3797748,74.860823 2.0541045,71.278651 6.4618941,47.863605 31.620112,29.991789 54.931468,33.715796 c 3.585927,0.572855 7.953874,1.775583 9.70655,2.67273 11.613183,5.944471 196.380212,118.125814 262.246442,159.222994 41.86725,26.12302 46.15719,29.55959 51.57629,41.31648 2.81573,6.10879 3.3865,8.67334 3.7745,16.95927 0.3801,8.11709 0.0882,10.84984 -1.73173,16.21691 -4.25419,12.54536 -7.79912,16.12516 -30.67085,30.97265 -39.17005,25.42773 -266.066197,163.65673 -284.467524,173.30245 -5.948806,3.11828 -7.40084,3.43845 -16.814603,3.70754 -8.086096,0.23115 -11.407156,-0.1151 -15.431635,-1.6089 z"
     id="path4154" />
  <path
     style="fill:#00a3cc;fill-opacity:1;stroke:#00a3cc;stroke-width:0.101992;stroke-dasharray:none"
     d="M 32.700164,476.33045 C 17.924277,470.86717 6.5411369,458.31463 2.5833654,443.11972 1.2072716,437.83653 1.0199203,415.52677 1.0199203,256.94484 1.0199203,139.46519 1.3797748,74.860823 2.0541045,71.278651 6.4606437,47.870247 31.620515,29.991854 54.918421,33.713712 c 3.578751,0.571708 8.388383,1.999372 10.688072,3.172585 9.827049,5.013387 155.399827,93.254653 238.329757,144.467393 65.95551,40.73032 68.57283,42.68081 74.51671,55.53193 2.90763,6.28653 3.47877,8.79145 3.8389,16.83665 0.34958,7.80967 0.023,10.69585 -1.88068,16.61601 -4.17766,12.99253 -7.83473,16.36003 -39.96503,36.80046 -49.60382,31.55661 -258.447632,158.52156 -275.167176,167.28571 -5.851399,3.06722 -7.34462,3.39413 -16.728431,3.66237 -8.319695,0.23783 -11.371518,-0.10036 -15.850379,-1.75637 z"
     id="path4156" />
  <path
     style="fill:#00a3cc;fill-opacity:1;stroke:#00a3cc;stroke-width:0.101992;stroke-dasharray:none"
     d="M 33.437757,476.72116 C 21.810044,473.14432 9.0383445,460.74739 3.9263066,448.07571 L 1.5298805,442.13546 1.2611496,259.61946 C 1.0849957,139.9797 1.3472776,75.153855 2.0224969,71.444164 7.1375938,43.341555 41.540616,24.702981 65.729404,36.929583 78.934394,43.604252 294.21783,174.63028 344.07095,206.33409 c 23.59521,15.00525 29.663,20.3835 34.39942,30.49019 3.34678,7.14147 3.48873,7.9273 3.46386,19.17572 -0.0437,19.75332 -3.87348,26.14552 -23.69548,39.54916 -36.82658,24.90215 -286.197991,176.65682 -297.309452,180.92732 -5.972788,2.29554 -20.406926,2.42401 -27.491541,0.24468 z"
     id="path4158" />
  <path
     style="fill:#00a3cc;fill-opacity:1;stroke:#00a3cc;stroke-width:0.101992;stroke-dasharray:none"
     d="M 32.855875,476.41385 C 20.997716,472.31783 10.846364,462.72158 4.6865207,449.78486 L 1.5298805,443.15538 1.2584281,259.56972 C 1.0683306,131.00519 1.3173199,74.388612 2.0892153,70.660614 5.8468201,52.512641 22.493116,36.916721 41.53364,33.70512 51.457138,32.031306 59.39717,33.506089 69.083454,38.822231 95.845636,53.510169 334.81687,199.48134 357.99203,215.29671 c 19.00309,12.96823 25.29037,24.25595 24.24094,43.52034 -0.58022,10.65108 -3.30609,18.45569 -8.61016,24.6523 -6.0457,7.06304 -34.80557,25.46827 -145.16066,92.89734 -96.05312,58.69029 -162.96194,98.71 -168.101619,100.54546 -5.651825,2.01834 -21.025151,1.73983 -27.504656,-0.4983 z"
     id="path4160" />
  <path
     style="fill:#00a3cc;fill-opacity:1;stroke:#00a3cc;stroke-width:0.101992;stroke-dasharray:none"
     d="M 32.855875,476.41385 C 20.998984,472.31827 10.865754,462.73781 4.6904694,449.78486 L 1.5298805,443.15538 1.2598026,259.56972 C 1.070886,131.15346 1.3205462,74.384312 2.0905899,70.660614 5.7581504,52.925406 21.256446,37.963413 40.016651,34.046946 c 10.646871,-2.22269 17.592402,-1.178375 27.767036,4.17499 18.827269,9.905932 231.522733,139.303304 278.748553,169.582044 24.4732,15.69094 30.51126,21.89177 34.42435,35.35233 2.39311,8.23199 1.6829,22.29335 -1.5486,30.66069 -5.00198,12.95164 -10.69811,16.85547 -139.21675,95.41194 -112.63938,68.85035 -174.064817,105.6187 -179.984593,107.7361 -5.515843,1.97294 -20.943386,1.66202 -27.350772,-0.55119 z"
     id="path4162" />
  <path
     style="fill:#00a3cc;fill-opacity:1;stroke:#00a3cc;stroke-width:0.101992;stroke-dasharray:none"
     d="M 32.855875,476.46867 C 20.888794,472.21334 10.84814,462.70086 4.6904694,449.78486 L 1.5298805,443.15538 1.2611888,259.56972 C 1.0734611,131.30336 1.3237997,74.379966 2.0919761,70.660614 4.8557109,57.279183 14.922798,44.62858 27.901863,38.227138 c 12.938382,-6.381377 25.7704,-6.919662 37.1041,-1.556465 15.24468,7.213904 265.135107,159.559007 293.239797,178.772937 16.99468,11.61853 23.02998,21.01848 23.99118,37.36616 0.87084,14.81125 -3.10983,26.19305 -11.85215,33.88834 -8.92679,7.85767 -39.15495,26.96756 -143.08443,90.4563 -68.5482,41.87491 -147.749141,89.58204 -160.495579,96.67541 -6.86663,3.82126 -7.54866,3.98422 -17.848606,4.26447 -8.438559,0.2296 -11.852215,-0.11507 -16.1003,-1.62562 z"
     id="path4164" />
  <path
     style="fill:#00a3cc;fill-opacity:1;stroke:#00a3cc;stroke-width:0.0721193;stroke-dasharray:none"
     d="M 38.583803,478.07744 C 29.680434,476.80476 17.169641,468.75091 10.690163,460.12086 9.0522022,457.93925 6.2202433,453.0712 4.3969208,449.30297 L 1.0817889,442.45164 V 257.82635 c 0,-174.071697 0.072618,-184.88814 1.270379,-189.223373 2.2181348,-8.02842 6.0043128,-14.283562 12.7572201,-21.076192 9.702045,-9.759115 20.451856,-14.351927 33.591735,-14.351927 7.832258,0 12.414754,1.205834 19.812172,5.213356 13.705038,7.42465 122.684025,73.386766 214.393865,129.766966 84.0808,51.69011 88.62233,54.86025 94.40036,65.8946 4.18547,7.99299 5.21552,12.43075 5.184,22.33418 -0.0234,7.3641 -0.31104,9.51446 -1.92912,14.42385 -3.67944,11.16364 -7.81291,15.38596 -28.21964,28.82614 -34.81288,22.9283 -262.062994,161.52355 -286.063352,174.46425 -8.243601,4.44486 -16.320215,5.60528 -27.695605,3.97924 z"
     id="path4220" />
  <path
     style="fill:#00a3cc;fill-opacity:1;stroke:#00a3cc;stroke-width:0.0721193;stroke-dasharray:none"
     d="M 38.223206,478.048 C 29.806744,476.65766 18.432995,469.66996 12.221325,462.0732 10.208143,459.61112 6.8781722,454.18905 4.8213912,450.02417 L 1.0817889,442.45164 V 257.82635 c 0,-174.071697 0.072618,-184.88814 1.270379,-189.223373 C 4.6380087,60.329498 8.3166442,54.334136 15.461224,47.238114 25.514313,37.25335 35.092034,33.207747 48.7299,33.185518 c 7.066324,-0.01152 12.042232,1.133724 17.980413,4.138321 10.769771,5.449284 164.777577,98.857761 249.172037,151.127281 49.55918,30.69438 56.20346,35.62672 61.42517,45.59866 4.13905,7.90436 5.23088,12.48043 5.2428,21.97358 0.0114,9.08985 -1.53442,15.78461 -5.2171,22.59458 -4.69103,8.67462 -14.49989,15.35143 -97.8711,66.61995 -99.67617,61.29515 -204.848164,124.79815 -215.836881,130.32261 -5.836056,2.93401 -16.42313,3.97076 -25.402033,2.4875 z"
     id="path4222" />
</svg>
