<?xml version="1.0" encoding="UTF-8" standalone="no"?>
<svg
   viewBox="0 0 512 512"
   version="1.1"
   id="svg4"
   sodipodi:docname="shuffle-blue.svg"
   inkscape:version="1.2 (dc2aedaf03, 2022-05-15)"
   xmlns:inkscape="http://www.inkscape.org/namespaces/inkscape"
   xmlns:sodipodi="http://sodipodi.sourceforge.net/DTD/sodipodi-0.dtd"
   xmlns="http://www.w3.org/2000/svg"
   xmlns:svg="http://www.w3.org/2000/svg">
  <defs
     id="defs8" />
  <sodipodi:namedview
     id="namedview6"
     pagecolor="#ffffff"
     bordercolor="#000000"
     borderopacity="0.25"
     inkscape:showpageshadow="2"
     inkscape:pageopacity="0.0"
     inkscape:pagecheckerboard="0"
     inkscape:deskcolor="#d1d1d1"
     showgrid="false"
     inkscape:zoom="1.0253906"
     inkscape:cx="255.51239"
     inkscape:cy="256.48763"
     inkscape:window-width="1366"
     inkscape:window-height="705"
     inkscape:window-x="-8"
     inkscape:window-y="-8"
     inkscape:window-maximized="1"
     inkscape:current-layer="svg4" />
  <!--! Font Awesome Pro 6.1.1 by @fontawesome - https://fontawesome.com License - https://fontawesome.com/license (Commercial License) Copyright 2022 Fonticons, Inc. -->
  <path
     d="M424.1 287c-15.13-15.12-40.1-4.426-40.1 16.97V352H336L153.6 108.8C147.6 100.8 138.1 96 128 96H32C14.31 96 0 110.3 0 128s14.31 32 32 32h80l182.4 243.2C300.4 411.3 309.9 416 320 416h63.97v47.94c0 21.39 25.86 32.12 40.99 17l79.1-79.98c9.387-9.387 9.387-24.59 0-33.97L424.1 287zM336 160h47.97v48.03c0 21.39 25.87 32.09 40.1 16.97l79.1-79.98c9.387-9.391 9.385-24.59-.0013-33.97l-79.1-79.98c-15.13-15.12-40.99-4.391-40.99 17V96H320c-10.06 0-19.56 4.75-25.59 12.81L254 162.7L293.1 216L336 160zM112 352H32c-17.69 0-32 14.31-32 32s14.31 32 32 32h96c10.06 0 19.56-4.75 25.59-12.81l40.4-53.87L154 296L112 352z"
     id="path2"
     style="fill:#01cdff;fill-opacity:1" />
  <path
     style="fill:#00a3cc;stroke:#00a3cc;stroke-width:0.975238;fill-opacity:1"
     d="M 21.779461,413.6462 C 9.120422,409.27156 0.89170644,397.79408 0.87299786,384.48569 0.85787904,373.73088 5.196126,364.88147 13.464471,358.80086 c 8.374601,-6.15875 8.216385,-6.13978 55.962884,-6.70844 l 43.583545,-0.51908 20.10227,-26.81905 c 11.05624,-14.75047 20.40822,-26.90811 20.78217,-27.01697 0.37394,-0.10886 9.37594,11.44547 20.00445,25.67628 l 19.32454,25.87421 -21.52177,28.68926 c -13.63492,18.17581 -23.00873,29.7664 -25.57939,31.62857 -7.98839,5.78676 -8.69997,5.84891 -66.57446,5.81396 -48.038801,-0.029 -53.177986,-0.18677 -57.769249,-1.7734 z"
     id="path1583" />
  <path
     style="fill:#00a3cc;fill-opacity:1;stroke:#00a3cc;stroke-width:0.975238"
     d="m 399.93104,485.99695 c -5.78974,-2.11553 -12.06046,-8.56138 -14.07204,-14.46507 -1.34245,-3.93984 -1.61518,-9.07486 -1.61518,-30.41036 v -25.67008 h -34.58687 c -37.60695,0 -39.37115,-0.21101 -47.66925,-5.70161 -2.88784,-1.9108 -28.12355,-34.86654 -96.44988,-125.95554 L 112.99912,160.42667 69.421467,159.90759 C 21.983771,159.34254 21.973774,159.34138 13.815158,153.47686 -5.3500778,139.70063 -2.8447707,110.16675 18.372956,99.747142 l 5.520378,-2.710949 h 56.076192 56.076194 l 5.57294,2.736665 c 3.06511,1.505162 7.23426,4.634932 9.26476,6.955042 2.0305,2.32011 44.28611,58.43111 93.90135,124.69112 l 90.20952,120.47275 24.62477,0.0845 24.62476,0.0846 0.006,-25.11238 c 0.003,-15.32482 0.4255,-26.62546 1.08321,-28.99455 3.78836,-13.64579 19.13664,-21.04106 31.58183,-15.21709 2.61426,1.2234 18.25976,16.25458 47.43346,45.57097 46.99626,47.22612 46.12073,46.14946 46.02158,56.59332 -0.0353,3.72173 -0.78741,6.33256 -2.86576,9.94842 -3.79131,6.59602 -84.47471,87.82242 -89.7288,90.33267 -5.06062,2.41781 -12.52369,2.75853 -17.84374,0.81463 z"
     id="path1930" />
  <path
     style="fill:#00a3cc;fill-opacity:1;stroke:#00a3cc;stroke-width:0.975238"
     d="m 398.36313,229.30669 c -4.83672,-2.19717 -9.33872,-6.59782 -11.7813,-11.51607 -1.65776,-3.33799 -1.88166,-6.54311 -2.15071,-30.78871 l -0.3003,-27.06286 -24.56827,0.0579 -24.56826,0.0579 -18.52952,24.39933 c -10.19124,13.41958 -19.65272,25.74864 -21.02552,27.39787 l -2.496,2.9986 -19.14327,-26.11687 -19.14328,-26.11685 22.12689,-29.31856 c 21.42008,-28.38201 22.32938,-29.42945 28.46594,-32.79039 l 6.33905,-3.471847 35.84,-0.2887 35.84,-0.2887 V 71.324499 c 0,-29.651486 0.61136,-32.977656 7.28862,-39.654924 2.92311,-2.92311 5.82599,-4.706593 9.37719,-5.761184 6.52082,-1.936476 9.14264,-1.919542 15.06169,0.09728 4.25593,1.450142 9.3307,6.226657 47.22897,44.453188 27.57197,27.810804 43.29421,44.392401 44.83782,47.288601 3.13606,5.88406 3.25286,14.58276 0.27342,20.36214 -3.00769,5.83414 -85.3531,88.88788 -90.42199,91.19979 -5.06572,2.31045 -13.46181,2.30923 -18.55117,-0.003 z"
     id="path1932" />
</svg>
